<mxfile host="app.diagrams.net" modified="2022-09-08T02:56:37.847Z" agent="5.0 (Windows NT 10.0; Win64; x64) AppleWebKit/537.36 (KHTML, like Gecko) Chrome/105.0.0.0 Safari/537.36" etag="2n1vVT35UT328iV8OCUS" version="20.3.0" type="github">
  <diagram id="fULOa6vJ_UBpo0KUboSm" name="Página-1">
    <mxGraphModel dx="1108" dy="488" grid="1" gridSize="10" guides="1" tooltips="1" connect="1" arrows="1" fold="1" page="1" pageScale="1" pageWidth="850" pageHeight="1100" math="0" shadow="0">
      <root>
        <mxCell id="0" />
        <mxCell id="1" parent="0" />
        <mxCell id="YLimOLRX2IaYCvLq2kxZ-3" style="edgeStyle=orthogonalEdgeStyle;rounded=0;orthogonalLoop=1;jettySize=auto;html=1;" edge="1" parent="1" source="YLimOLRX2IaYCvLq2kxZ-1" target="YLimOLRX2IaYCvLq2kxZ-2">
          <mxGeometry relative="1" as="geometry" />
        </mxCell>
        <mxCell id="YLimOLRX2IaYCvLq2kxZ-1" value="INICIO" style="ellipse;whiteSpace=wrap;html=1;" vertex="1" parent="1">
          <mxGeometry x="365" y="30" width="120" height="80" as="geometry" />
        </mxCell>
        <mxCell id="YLimOLRX2IaYCvLq2kxZ-6" style="edgeStyle=orthogonalEdgeStyle;rounded=0;orthogonalLoop=1;jettySize=auto;html=1;entryX=0.5;entryY=0;entryDx=0;entryDy=0;" edge="1" parent="1" source="YLimOLRX2IaYCvLq2kxZ-2" target="YLimOLRX2IaYCvLq2kxZ-4">
          <mxGeometry relative="1" as="geometry" />
        </mxCell>
        <mxCell id="YLimOLRX2IaYCvLq2kxZ-2" value="CONTADOR(FLOAT)&lt;br&gt;EDADALUM(FLOAT)&lt;br&gt;PROMEDIO(FLOAT)&lt;br&gt;EDADALUM2(FLOAT)" style="rounded=0;whiteSpace=wrap;html=1;" vertex="1" parent="1">
          <mxGeometry x="365" y="130" width="120" height="60" as="geometry" />
        </mxCell>
        <mxCell id="YLimOLRX2IaYCvLq2kxZ-8" style="edgeStyle=orthogonalEdgeStyle;rounded=0;orthogonalLoop=1;jettySize=auto;html=1;entryX=0.5;entryY=0;entryDx=0;entryDy=0;" edge="1" parent="1" source="YLimOLRX2IaYCvLq2kxZ-4" target="YLimOLRX2IaYCvLq2kxZ-7">
          <mxGeometry relative="1" as="geometry" />
        </mxCell>
        <mxCell id="YLimOLRX2IaYCvLq2kxZ-4" value="CONTADOR=0&lt;br&gt;PROMEDIO=0&lt;br&gt;EDADALUM=0&lt;br&gt;EDADLUM2=0" style="shape=parallelogram;perimeter=parallelogramPerimeter;whiteSpace=wrap;html=1;fixedSize=1;" vertex="1" parent="1">
          <mxGeometry x="343" y="210" width="165" height="60" as="geometry" />
        </mxCell>
        <mxCell id="YLimOLRX2IaYCvLq2kxZ-10" style="edgeStyle=orthogonalEdgeStyle;rounded=0;orthogonalLoop=1;jettySize=auto;html=1;entryX=0.5;entryY=0;entryDx=0;entryDy=0;exitX=0.505;exitY=0.833;exitDx=0;exitDy=0;exitPerimeter=0;" edge="1" parent="1" source="YLimOLRX2IaYCvLq2kxZ-7" target="YLimOLRX2IaYCvLq2kxZ-9">
          <mxGeometry relative="1" as="geometry" />
        </mxCell>
        <mxCell id="YLimOLRX2IaYCvLq2kxZ-7" value="&quot;INGRESA LAS DIFERENTES EDADES, A MEDIDA QUE INSERTE LAS EDADES ,EL PROMEDIO SE IRA CALCULANDO&quot;" style="shape=document;whiteSpace=wrap;html=1;boundedLbl=1;" vertex="1" parent="1">
          <mxGeometry x="315" y="290" width="220" height="90" as="geometry" />
        </mxCell>
        <mxCell id="YLimOLRX2IaYCvLq2kxZ-13" style="edgeStyle=orthogonalEdgeStyle;rounded=0;orthogonalLoop=1;jettySize=auto;html=1;entryX=0.5;entryY=0;entryDx=0;entryDy=0;exitX=0.497;exitY=0.88;exitDx=0;exitDy=0;exitPerimeter=0;" edge="1" parent="1" source="YLimOLRX2IaYCvLq2kxZ-9" target="YLimOLRX2IaYCvLq2kxZ-11">
          <mxGeometry relative="1" as="geometry" />
        </mxCell>
        <mxCell id="YLimOLRX2IaYCvLq2kxZ-9" value="&quot;INGRESA EDAD&quot;" style="shape=document;whiteSpace=wrap;html=1;boundedLbl=1;" vertex="1" parent="1">
          <mxGeometry x="348" y="390" width="155" height="50" as="geometry" />
        </mxCell>
        <mxCell id="YLimOLRX2IaYCvLq2kxZ-30" style="edgeStyle=orthogonalEdgeStyle;rounded=0;orthogonalLoop=1;jettySize=auto;html=1;entryX=0.5;entryY=0;entryDx=0;entryDy=0;" edge="1" parent="1" source="YLimOLRX2IaYCvLq2kxZ-11" target="YLimOLRX2IaYCvLq2kxZ-27">
          <mxGeometry relative="1" as="geometry" />
        </mxCell>
        <mxCell id="YLimOLRX2IaYCvLq2kxZ-11" value="EDADALUMN" style="shape=parallelogram;perimeter=parallelogramPerimeter;whiteSpace=wrap;html=1;fixedSize=1;" vertex="1" parent="1">
          <mxGeometry x="350" y="450" width="150" height="40" as="geometry" />
        </mxCell>
        <mxCell id="YLimOLRX2IaYCvLq2kxZ-17" style="edgeStyle=orthogonalEdgeStyle;rounded=0;orthogonalLoop=1;jettySize=auto;html=1;entryX=0.5;entryY=0;entryDx=0;entryDy=0;" edge="1" parent="1" source="YLimOLRX2IaYCvLq2kxZ-14" target="YLimOLRX2IaYCvLq2kxZ-16">
          <mxGeometry relative="1" as="geometry" />
        </mxCell>
        <mxCell id="YLimOLRX2IaYCvLq2kxZ-18" value="NO" style="edgeLabel;html=1;align=center;verticalAlign=middle;resizable=0;points=[];" vertex="1" connectable="0" parent="YLimOLRX2IaYCvLq2kxZ-17">
          <mxGeometry x="0.2575" y="3" relative="1" as="geometry">
            <mxPoint as="offset" />
          </mxGeometry>
        </mxCell>
        <mxCell id="YLimOLRX2IaYCvLq2kxZ-20" value="SI" style="edgeStyle=orthogonalEdgeStyle;rounded=0;orthogonalLoop=1;jettySize=auto;html=1;entryX=0.5;entryY=0;entryDx=0;entryDy=0;exitX=1;exitY=0.5;exitDx=0;exitDy=0;" edge="1" parent="1" source="YLimOLRX2IaYCvLq2kxZ-14" target="YLimOLRX2IaYCvLq2kxZ-19">
          <mxGeometry relative="1" as="geometry" />
        </mxCell>
        <mxCell id="YLimOLRX2IaYCvLq2kxZ-14" value="EDADALUMN&amp;gt;=0" style="rhombus;whiteSpace=wrap;html=1;" vertex="1" parent="1">
          <mxGeometry x="315.5" y="570" width="220" height="80" as="geometry" />
        </mxCell>
        <mxCell id="YLimOLRX2IaYCvLq2kxZ-37" style="edgeStyle=orthogonalEdgeStyle;rounded=0;orthogonalLoop=1;jettySize=auto;html=1;" edge="1" parent="1" source="YLimOLRX2IaYCvLq2kxZ-16" target="YLimOLRX2IaYCvLq2kxZ-36">
          <mxGeometry relative="1" as="geometry" />
        </mxCell>
        <mxCell id="YLimOLRX2IaYCvLq2kxZ-16" value="&quot;INGRESE VALORES VALIDOS&quot;" style="shape=document;whiteSpace=wrap;html=1;boundedLbl=1;" vertex="1" parent="1">
          <mxGeometry x="80" y="650" width="120" height="60" as="geometry" />
        </mxCell>
        <mxCell id="YLimOLRX2IaYCvLq2kxZ-33" value="" style="edgeStyle=orthogonalEdgeStyle;rounded=0;orthogonalLoop=1;jettySize=auto;html=1;" edge="1" parent="1" source="YLimOLRX2IaYCvLq2kxZ-19" target="YLimOLRX2IaYCvLq2kxZ-32">
          <mxGeometry relative="1" as="geometry" />
        </mxCell>
        <mxCell id="YLimOLRX2IaYCvLq2kxZ-19" value="PROMEDIO=EDADALUM/CONTADOR" style="shape=parallelogram;perimeter=parallelogramPerimeter;whiteSpace=wrap;html=1;fixedSize=1;" vertex="1" parent="1">
          <mxGeometry x="490" y="640" width="250" height="40" as="geometry" />
        </mxCell>
        <mxCell id="YLimOLRX2IaYCvLq2kxZ-24" style="edgeStyle=orthogonalEdgeStyle;rounded=0;orthogonalLoop=1;jettySize=auto;html=1;entryX=0.5;entryY=0;entryDx=0;entryDy=0;" edge="1" parent="1" source="YLimOLRX2IaYCvLq2kxZ-21" target="YLimOLRX2IaYCvLq2kxZ-23">
          <mxGeometry relative="1" as="geometry" />
        </mxCell>
        <mxCell id="YLimOLRX2IaYCvLq2kxZ-21" value="CONTADOR=CONTADOR+1&lt;br&gt;" style="shape=parallelogram;perimeter=parallelogramPerimeter;whiteSpace=wrap;html=1;fixedSize=1;" vertex="1" parent="1">
          <mxGeometry x="490" y="790" width="250" height="40" as="geometry" />
        </mxCell>
        <mxCell id="YLimOLRX2IaYCvLq2kxZ-26" value="" style="edgeStyle=orthogonalEdgeStyle;rounded=0;orthogonalLoop=1;jettySize=auto;html=1;" edge="1" parent="1" source="YLimOLRX2IaYCvLq2kxZ-23" target="YLimOLRX2IaYCvLq2kxZ-25">
          <mxGeometry relative="1" as="geometry" />
        </mxCell>
        <mxCell id="YLimOLRX2IaYCvLq2kxZ-23" value="&quot;INGRESA LAS DIFERENTES EDADES, A MEDIDA QUE INSERTE LAS EDADES ,EL PROMEDIO SE IRA CALCULANDO&quot;" style="shape=document;whiteSpace=wrap;html=1;boundedLbl=1;" vertex="1" parent="1">
          <mxGeometry x="505" y="840" width="220" height="90" as="geometry" />
        </mxCell>
        <mxCell id="YLimOLRX2IaYCvLq2kxZ-38" style="edgeStyle=orthogonalEdgeStyle;rounded=0;orthogonalLoop=1;jettySize=auto;html=1;entryX=1;entryY=0.5;entryDx=0;entryDy=0;" edge="1" parent="1" source="YLimOLRX2IaYCvLq2kxZ-25" target="YLimOLRX2IaYCvLq2kxZ-27">
          <mxGeometry relative="1" as="geometry">
            <mxPoint x="800" y="550" as="targetPoint" />
            <Array as="points">
              <mxPoint x="820" y="960" />
              <mxPoint x="820" y="745" />
              <mxPoint x="810" y="745" />
              <mxPoint x="810" y="530" />
            </Array>
          </mxGeometry>
        </mxCell>
        <mxCell id="YLimOLRX2IaYCvLq2kxZ-25" value="EDADALUMN2" style="shape=parallelogram;perimeter=parallelogramPerimeter;whiteSpace=wrap;html=1;fixedSize=1;" vertex="1" parent="1">
          <mxGeometry x="540" y="940" width="150" height="40" as="geometry" />
        </mxCell>
        <mxCell id="YLimOLRX2IaYCvLq2kxZ-31" value="" style="edgeStyle=orthogonalEdgeStyle;rounded=0;orthogonalLoop=1;jettySize=auto;html=1;" edge="1" parent="1" source="YLimOLRX2IaYCvLq2kxZ-27" target="YLimOLRX2IaYCvLq2kxZ-14">
          <mxGeometry relative="1" as="geometry" />
        </mxCell>
        <mxCell id="YLimOLRX2IaYCvLq2kxZ-27" value="EDADALUMN=EDADALUMN+EDADALUMN2" style="shape=parallelogram;perimeter=parallelogramPerimeter;whiteSpace=wrap;html=1;fixedSize=1;" vertex="1" parent="1">
          <mxGeometry x="284" y="510" width="282.25" height="40" as="geometry" />
        </mxCell>
        <mxCell id="YLimOLRX2IaYCvLq2kxZ-35" style="edgeStyle=orthogonalEdgeStyle;rounded=0;orthogonalLoop=1;jettySize=auto;html=1;" edge="1" parent="1" source="YLimOLRX2IaYCvLq2kxZ-32" target="YLimOLRX2IaYCvLq2kxZ-21">
          <mxGeometry relative="1" as="geometry" />
        </mxCell>
        <mxCell id="YLimOLRX2IaYCvLq2kxZ-32" value="&quot;EL PROMEDIO DE EDAD ES DE &quot;, PROMEDIO ,&quot;AÑOS&quot;" style="shape=document;whiteSpace=wrap;html=1;boundedLbl=1;" vertex="1" parent="1">
          <mxGeometry x="547.5" y="700" width="135" height="70" as="geometry" />
        </mxCell>
        <mxCell id="YLimOLRX2IaYCvLq2kxZ-36" value="FIN" style="ellipse;whiteSpace=wrap;html=1;" vertex="1" parent="1">
          <mxGeometry x="110" y="900" width="120" height="80" as="geometry" />
        </mxCell>
      </root>
    </mxGraphModel>
  </diagram>
</mxfile>
